<svg version="1.0" xmlns="http://www.w3.org/2000/svg" width="984.000000pt" height="1280.000000pt" viewBox="0 0 984.000000 1280.000000" preserveAspectRatio="xMidYMid meet">
<metadata>
Created by potrace 1.15, written by Peter Selinger 2001-2017
</metadata>
<g transform="translate(0.000000,1280.000000) scale(0.100000,-0.100000)" fill="#9c27b0" stroke="none">
<path d="M4680 12788 c-142 -13 -3365 -475 -3440 -493 -248 -59 -492 -279 -642 -580 -73 -144 -112 -264 -142 -435 -11 -60 -79 -1479 -231 -4800 -118 -2593 -218 -4792 -222 -4885 -9 -255 20 -419 106 -600 70 -148 171 -264 285 -330 60 -34 1557 -633 1629 -651 43 -12 88 -15 152 -11 98 5 3242 454 3415 488 1153 222 2218 1032 3008 2286 625 992 1046 2244 1187 3532 67 615 72 1288 14 1860 -183 1808 -968 3197 -2124 3756 -153 74 -1701 694 -1860 744 -337 108 -770 153 -1135 119z m1363 -2863 c87 -103 196 -272 276 -425 226 -435 357 -944 402 -1559 15 -211 6 -790 -15 -996 -131 -1243 -568 -2276 -1256 -2966 -365 -367 -795 -616 -1221 -708 -100 -21 -1028 -156 -1033 -150 -5 5 292 6520 297 6525 8 8 2422 352 2457 351 29 -2 42 -12 93 -72z"/>
</g>
</svg>